# xmcd
#
# Track frame offsets: 
#        150
#        11178
#        28224
#        45402
#        60143
#        82646
#        105149
#        114760
#        130318
#        146971
#
# Disc length: 2179 seconds
#
# Revision: 0
# Processed by: cddbd v1.5.2PL0 Copyright (c) Steve Scherf et al.
# Submitted via: ExactAudioCopy v1.3
#
DISCID=7008810a
DTITLE=The Wilbur Project - Straight Down The Line
DYEAR=2019
DGENRE=Blues
TTITLE0=Lead On Me
TTITLE1=Monday (Gets To Me)
TTITLE2=Born Lucky
TTITLE3=Stella
TTITLE4=Looking Over My Shoulder
TTITLE5=Leavin' On A Train
TTITLE6=The Plan
TTITLE7=That's That
TTITLE8=Nothin's Cookin'
TTITLE9=Take Me Home
EXTD=
EXTT0=
EXTT1=
EXTT2=
EXTT3=
EXTT4=
EXTT5=
EXTT6=
EXTT7=
EXTT8=
EXTT9=
PLAYORDER=
